<?xml version="1.0" standalone="no"?>
<!DOCTYPE svg PUBLIC "-//W3C//DTD SVG 20010904//EN"
 "http://www.w3.org/TR/2001/REC-SVG-20010904/DTD/svg10.dtd">
<svg version="1.0" xmlns="http://www.w3.org/2000/svg"
 width="212.000000pt" height="204.000000pt" viewBox="0 0 212.000000 204.000000"
 preserveAspectRatio="xMidYMid meet">

<g transform="translate(0.000000,204.000000) scale(0.100000,-0.100000)"
fill="#000000" stroke="none">
<path d="M1460 1917 c-15 -8 -81 -110 -183 -284 l-159 -273 -298 0 c-234 0
-300 -3 -308 -13 -8 -9 -9 -31 -3 -65 8 -50 7 -52 -15 -52 -20 0 -24 5 -24 30
0 19 -7 33 -19 40 -29 15 -51 -11 -45 -53 2 -17 27 -230 54 -472 63 -556 61
-538 73 -552 14 -19 1060 -19 1074 0 12 14 10 -4 73 552 27 242 52 455 54 472
6 42 -16 68 -45 53 -12 -7 -19 -21 -19 -40 0 -25 -4 -30 -24 -30 -22 0 -23 2
-15 52 12 76 8 78 -137 78 -68 0 -124 3 -123 8 0 4 81 77 178 163 98 87 181
166 183 177 7 24 -10 61 -33 75 -36 22 -67 -4 -255 -213 -141 -157 -194 -210
-211 -210 -13 0 -23 2 -23 5 0 3 77 110 170 237 175 239 190 268 153 300 -28
23 -48 27 -73 15z m96 -684 c-4 -32 -16 -129 -28 -215 l-21 -158 -437 0 -437
0 -21 158 c-12 86 -24 183 -28 215 l-7 57 493 0 493 0 -7 -57z m-1016 -181 c0
-38 34 -240 42 -249 8 -10 118 -13 488 -13 370 0 480 3 488 13 8 9 42 211 42
249 0 4 9 8 20 8 26 0 26 8 -10 -300 -16 -140 -30 -258 -30 -262 0 -10 -1020
-10 -1020 0 0 4 -14 122 -30 262 -36 308 -36 300 -10 300 11 0 20 -4 20 -8z
m1018 -744 l-3 -23 -485 0 -485 0 -3 23 -3 22 491 0 491 0 -3 -22z"/>
<path d="M311 1278 c-21 -46 -77 -165 -124 -266 -47 -101 -84 -189 -81 -197 8
-20 36 -28 50 -13 23 24 245 512 242 533 -2 12 -12 21 -26 23 -20 3 -28 -8
-61 -80z"/>
<path d="M1747 1354 c-4 -4 -7 -15 -7 -24 0 -21 226 -509 244 -528 14 -15 42
-7 50 13 3 8 -50 132 -118 277 -94 202 -127 264 -142 266 -11 2 -23 0 -27 -4z"/>
</g>
</svg>
